<mxfile host="app.diagrams.net" modified="2023-11-25T23:05:38.317Z" agent="Mozilla/5.0 (Windows NT 10.0; Win64; x64) AppleWebKit/537.36 (KHTML, like Gecko) Chrome/119.0.0.0 Safari/537.36" etag="1uqSqBbQ5LahdsKvjIzF" version="22.1.4" type="github">
  <diagram name="Page-1" id="ohVxvqBQ41DFN_AmDzs9">
    <mxGraphModel dx="511" dy="589" grid="1" gridSize="10" guides="1" tooltips="1" connect="1" arrows="1" fold="1" page="1" pageScale="1" pageWidth="827" pageHeight="1169" math="0" shadow="0">
      <root>
        <mxCell id="0" />
        <mxCell id="1" parent="0" />
        <mxCell id="blSs06st6KV2Z9n-WQbx-1" value="Voter" style="shape=umlActor;html=1;verticalLabelPosition=bottom;verticalAlign=top;align=center;fontSize=16;" vertex="1" parent="1">
          <mxGeometry x="60" y="150" width="30" height="60" as="geometry" />
        </mxCell>
        <mxCell id="blSs06st6KV2Z9n-WQbx-2" value="Register to vote" style="ellipse;whiteSpace=wrap;html=1;fontSize=16;" vertex="1" parent="1">
          <mxGeometry x="170" y="30" width="140" height="70" as="geometry" />
        </mxCell>
        <mxCell id="blSs06st6KV2Z9n-WQbx-7" value="Candidate" style="shape=umlActor;html=1;verticalLabelPosition=bottom;verticalAlign=top;align=center;fontSize=16;" vertex="1" parent="1">
          <mxGeometry x="500" y="150" width="30" height="60" as="geometry" />
        </mxCell>
        <mxCell id="blSs06st6KV2Z9n-WQbx-8" value="View Candidates" style="ellipse;whiteSpace=wrap;html=1;fontSize=16;" vertex="1" parent="1">
          <mxGeometry x="160" y="190" width="140" height="70" as="geometry" />
        </mxCell>
        <mxCell id="blSs06st6KV2Z9n-WQbx-9" value="Vote" style="ellipse;whiteSpace=wrap;html=1;fontSize=16;" vertex="1" parent="1">
          <mxGeometry x="160" y="280" width="140" height="70" as="geometry" />
        </mxCell>
        <mxCell id="blSs06st6KV2Z9n-WQbx-10" value="Count Votes" style="ellipse;whiteSpace=wrap;html=1;fontSize=16;" vertex="1" parent="1">
          <mxGeometry x="160" y="370" width="140" height="70" as="geometry" />
        </mxCell>
        <mxCell id="blSs06st6KV2Z9n-WQbx-14" value="Register to vote" style="ellipse;whiteSpace=wrap;html=1;fontSize=16;" vertex="1" parent="1">
          <mxGeometry x="320" y="160" width="140" height="70" as="geometry" />
        </mxCell>
        <mxCell id="blSs06st6KV2Z9n-WQbx-15" value="Election Authority" style="shape=umlActor;html=1;verticalLabelPosition=bottom;verticalAlign=top;align=center;fontSize=16;" vertex="1" parent="1">
          <mxGeometry x="500" y="350" width="30" height="60" as="geometry" />
        </mxCell>
        <mxCell id="blSs06st6KV2Z9n-WQbx-16" value="Register to vote" style="ellipse;whiteSpace=wrap;html=1;fontSize=16;" vertex="1" parent="1">
          <mxGeometry x="330" y="30" width="140" height="70" as="geometry" />
        </mxCell>
      </root>
    </mxGraphModel>
  </diagram>
</mxfile>
